HIERARCHY
ROOT Hips
{
	OFFSET 0.000000 0.000000 0.000000
	CHANNELS 6 Xposition Yposition Zposition Xrotation Yrotation Zrotation
	JOINT LeftUpLeg_virtual
	{
		OFFSET 0.000000 0.000000 0.000000
		CHANNELS 3 Xrotation Yrotation Zrotation
		JOINT LeftUpLeg
		{
			OFFSET 10.205400 -3.823500 0.155100
			CHANNELS 3 Xrotation Yrotation Zrotation
			JOINT LeftLeg
			{
				OFFSET 0.708757 -12.982077 0.567790
				CHANNELS 3 Xrotation Yrotation Zrotation
				JOINT LeftFoot
				{
					OFFSET -0.708756 -10.717838 -2.184338
					CHANNELS 3 Xrotation Yrotation Zrotation
					JOINT LeftToeBase
					{
						OFFSET 0.108149 -7.191104 7.560241
						CHANNELS 3 Xrotation Yrotation Zrotation
						JOINT LeftToe_End
						{
							OFFSET 0.070230 0.081724 4.490308
							CHANNELS 3 Xrotation Yrotation Zrotation
							End Site
							{
								OFFSET 0 0 0
							}
						}
					}
				}
			}
		}
	}
	JOINT RightUpLeg_virtual
	{
		OFFSET 0.000000 0.000000 0.000000
		CHANNELS 3 Xrotation Yrotation Zrotation
		JOINT RightUpLeg
		{
			OFFSET -10.205400 -3.823500 0.005500
			CHANNELS 3 Xrotation Yrotation Zrotation
			JOINT RightLeg
			{
				OFFSET -0.708756 -12.982134 0.610632
				CHANNELS 3 Xrotation Yrotation Zrotation
				JOINT RightFoot
				{
					OFFSET 0.708754 -10.717769 -1.945823
					CHANNELS 3 Xrotation Yrotation Zrotation
					JOINT RightToeBase
					{
						OFFSET -0.108140 -7.191069 7.372968
						CHANNELS 3 Xrotation Yrotation Zrotation
						JOINT RightToe_End
						{
							OFFSET -0.070227 0.081735 4.479403
							CHANNELS 3 Xrotation Yrotation Zrotation
							End Site
							{
								OFFSET 0 0 0
							}
						}
					}
				}
			}
		}
	}
	JOINT Spine_virtual
	{
		OFFSET 0.000000 0.000000 0.000000
		CHANNELS 3 Xrotation Yrotation Zrotation
		JOINT Spine
		{
			OFFSET 0.000000 6.876099 0.125700
			CHANNELS 3 Xrotation Yrotation Zrotation
			JOINT Spine1
			{
				OFFSET 0.000000 5.730043 0.104720
				CHANNELS 3 Xrotation Yrotation Zrotation
				JOINT Spine1_split
				{
					OFFSET 0.000000 5.730043 0.104720
					CHANNELS 3 Xrotation Yrotation Zrotation
					JOINT Spine2
					{
						OFFSET 0.000000 5.730043 0.104720
						CHANNELS 3 Xrotation Yrotation Zrotation
						JOINT Neck_virtual
						{
							OFFSET 0.000000 0.000000 0.000000
							CHANNELS 3 Xrotation Yrotation Zrotation
							JOINT Neck
							{
								OFFSET 0.000000 10.314075 0.188496
								CHANNELS 3 Xrotation Yrotation Zrotation
								JOINT Head
								{
									OFFSET 0.000000 7.643700 -2.377400
									CHANNELS 3 Xrotation Yrotation Zrotation
									JOINT HeadTop_End
									{
										OFFSET 0.000000 43.788605 -13.619600
										CHANNELS 3 Xrotation Yrotation Zrotation
										End Site
										{
											OFFSET 0 0 0
										}
									}
								}
							}
						}
						JOINT LeftShoulder_virtual
						{
							OFFSET 0.000000 0.000000 0.000000
							CHANNELS 3 Xrotation Yrotation Zrotation
							JOINT LeftShoulder
							{
								OFFSET 2.196100 4.412489 0.087492
								CHANNELS 3 Xrotation Yrotation Zrotation
								JOINT LeftShoulder_split
								{
									OFFSET 2.196100 4.412489 0.087492
									CHANNELS 3 Xrotation Yrotation Zrotation
									JOINT LeftArm
									{
										OFFSET 8.771219 -2.981674 -0.026999
										CHANNELS 3 Xrotation Yrotation Zrotation
										JOINT LeftForeArm
										{
											OFFSET 8.512804 0.000000 -0.000000
											CHANNELS 3 Xrotation Yrotation Zrotation
											JOINT LeftHand
											{
												OFFSET 18.484802 0.000000 -0.000000
												CHANNELS 3 Xrotation Yrotation Zrotation
												End Site
												{
													OFFSET 0 0 0
												}
											}
										}
									}
								}
							}
						}
						JOINT RightShoulder_virtual
						{
							OFFSET 0.000000 0.000000 0.000000
							CHANNELS 3 Xrotation Yrotation Zrotation
							JOINT RightShoulder
							{
								OFFSET -2.196100 4.412496 0.070690
								CHANNELS 3 Xrotation Yrotation Zrotation
								JOINT RightShoulder_split
								{
									OFFSET -2.196100 4.412496 0.070690
									CHANNELS 3 Xrotation Yrotation Zrotation
									JOINT RightArm
									{
										OFFSET -8.771282 -2.981682 -0.094208
										CHANNELS 3 Xrotation Yrotation Zrotation
										JOINT RightForeArm
										{
											OFFSET -8.494598 0.000000 0.000000
											CHANNELS 3 Xrotation Yrotation Zrotation
											JOINT RightHand
											{
												OFFSET -18.483803 0.000000 0.000001
												CHANNELS 3 Xrotation Yrotation Zrotation
												End Site
												{
													OFFSET 0 0 0
												}
											}
										}
									}
								}
							}
						}
					}
				}
			}
		}
	}
}
MOTION
Frames: 10
Frame Time: 0.03333333
0.857232 27.507654 0.331816 0.000000 0.000000 0.000000 -0.675103 -45.540286 3.621471 -39.757657 5.931715 26.021260 62.429951 -12.166237 -1.154461 -24.309449 -8.234797 -12.681979 -3.331898 -0.744129 0.929811 0.000000 0.000000 0.000000 -1.676108 -45.169776 4.233417 -15.464996 -12.156165 -40.344210 64.752611 2.552480 -5.929540 -37.236542 -18.378670 30.907907 -3.236451 -0.161392 0.330471 0.000000 0.000000 0.000000 -0.260665 -44.811963 4.616109 9.949187 11.654058 -3.487429 0.880605 3.797508 -1.858623 0.466740 -2.745271 1.403852 0.000000 0.000000 0.000000 2.219600 3.909818 -1.835660 -6.891721 11.254095 2.697596 5.509153 19.511808 1.017685 0.000000 0.000000 0.000000 1.509749 3.882019 -1.465982 1.136207 1.294046 -3.650112 -0.325460 -3.604030 1.389454 5.521711 0.263486 -37.230050 178.871658 -50.366488 178.604584 0.000000 0.000000 0.000000 0.792770 3.617887 -1.519657 2.231721 14.234876 -4.186919 -6.702491 -0.343699 1.725155 -59.372376 19.917557 63.138419 -159.675534 79.818212 158.766928 0.000000 0.000000 0.000000 
1.018477 27.622774 0.357509 0.000000 0.000000 0.000000 -0.417468 -50.244907 3.442200 -35.017434 7.286979 26.577063 61.334832 -12.056069 -2.706817 -28.506527 -4.350874 -11.828148 -3.821680 -0.831329 1.224420 0.000000 0.000000 0.000000 -1.339539 -49.802355 4.297258 -19.800233 -6.428069 -40.862215 66.300626 3.837265 -6.748745 -35.709520 -15.959307 30.526656 -2.112035 -0.070942 0.343292 0.000000 0.000000 0.000000 0.359519 -48.806473 4.845361 10.005011 11.361415 -2.639072 1.111026 3.558175 -1.807281 0.633949 -2.656286 1.269239 0.000000 0.000000 0.000000 2.463560 3.709958 -1.737020 -6.705074 12.292698 2.326521 4.174468 22.567097 -0.501530 0.000000 0.000000 0.000000 1.462230 3.682588 -1.380277 1.349087 1.997073 -1.682811 0.570410 -3.908268 0.749554 1.318331 4.915005 -32.254759 179.184658 -54.462651 178.712842 0.000000 0.000000 0.000000 0.785995 3.415112 -1.412276 1.879727 11.616979 -2.128888 -5.860148 -0.664316 2.077079 -60.744151 22.463544 68.022564 -168.311133 75.424249 167.297697 0.000000 0.000000 0.000000 
1.136575 27.684441 0.334785 0.000000 0.000000 0.000000 -0.306169 -54.667598 2.821546 -31.108575 7.415933 27.113355 61.605765 -11.869498 -3.266912 -32.437846 -0.671464 -11.302236 -4.090126 -0.850690 1.252556 0.000000 0.000000 0.000000 -1.107361 -53.929528 3.853157 -23.203344 -1.737684 -40.535612 66.282369 5.004891 -7.295770 -33.837812 -13.596415 30.405588 -1.468406 0.065921 0.319330 0.000000 0.000000 0.000000 0.997767 -52.306360 4.529381 9.946320 10.480780 -2.022820 1.349426 2.969363 -1.748238 0.973018 -2.648312 1.160298 0.000000 0.000000 0.000000 2.703747 3.076285 -1.587203 -6.585152 13.401201 2.087646 3.050877 25.621858 -2.311356 0.000000 0.000000 0.000000 1.532059 3.056049 -1.324595 1.458220 2.593409 0.589331 0.681482 -2.290484 -0.101353 -7.444011 5.514908 -24.795339 178.755135 -66.102796 178.362399 0.000000 0.000000 0.000000 0.878757 2.822466 -1.420728 1.561463 9.830449 -0.546221 -5.189725 -1.457666 2.081904 -61.676581 24.991828 72.246463 -173.430237 71.679051 172.055061 0.000000 0.000000 0.000000 
1.199964 27.711189 0.247216 0.000000 0.000000 0.000000 -0.576998 -57.727420 1.701128 -28.886704 6.229526 27.672160 63.108161 -11.839406 -2.713483 -35.300675 2.255749 -11.560898 -3.759372 -0.772206 0.977473 0.000000 0.000000 0.000000 -1.248981 -56.699275 2.762948 -24.927462 0.933397 -39.551194 64.796844 5.711989 -7.505187 -32.229112 -11.761910 30.326159 -1.471073 0.215775 0.333155 0.000000 0.000000 0.000000 1.283601 -54.670890 3.582690 9.793212 8.933535 -1.614733 1.525856 2.040956 -1.723157 1.336399 -2.448779 0.978424 0.000000 0.000000 0.000000 2.823982 2.026904 -1.516271 -6.497754 14.459524 2.043775 2.691748 28.360923 -4.288148 0.000000 0.000000 0.000000 1.925326 2.000612 -1.381819 1.538914 2.950388 2.689263 -0.282077 0.589067 -0.918427 -18.290374 1.073289 -17.485354 169.667308 -85.314786 169.486732 0.000000 0.000000 0.000000 1.085145 1.829930 -1.558802 1.331947 8.889613 0.521438 -5.178237 -2.183105 1.613165 -60.493339 27.465400 75.458728 -176.799529 68.264599 174.841928 0.000000 0.000000 0.000000 
1.202167 27.711248 0.135006 0.000000 0.000000 0.000000 -1.202597 -58.583011 0.154829 -28.675149 4.193778 28.053834 65.139685 -11.838419 -1.304274 -36.368456 4.022530 -12.756961 -3.162340 -0.592325 0.565227 0.000000 0.000000 0.000000 -1.767273 -57.565859 1.162698 -24.641958 1.068331 -38.234364 62.456828 5.636982 -7.479098 -31.488429 -10.911513 30.056524 -2.026665 0.338050 0.418349 0.000000 0.000000 0.000000 1.171595 -55.595421 2.190807 9.522465 6.948202 -1.396766 1.657282 0.984867 -1.777560 1.277126 -2.279888 0.428998 0.000000 0.000000 0.000000 2.788748 0.827001 -1.589892 -6.512063 15.235787 2.180614 3.041597 30.284424 -6.037221 0.000000 0.000000 0.000000 2.584903 0.749862 -1.516121 1.602968 3.192671 4.101112 -1.972913 3.363134 -1.325363 -27.397473 -6.485885 -13.418335 4.751722 -73.048197 4.639998 0.000000 0.000000 0.000000 1.460092 0.676240 -1.808637 1.281805 8.955537 1.048099 -5.869096 -2.166557 1.339182 -56.036593 29.969436 76.675232 -178.510846 64.433935 175.968035 0.000000 0.000000 0.000000 
1.162395 27.690289 0.043509 0.000000 0.000000 0.000000 -1.672380 -57.133641 -1.222067 -30.465430 1.944188 28.010934 67.029578 -11.712119 0.474160 -35.439140 4.482686 -14.608600 -2.710678 -0.380977 0.194571 0.000000 0.000000 0.000000 -2.350165 -56.246396 -0.439099 -22.458712 -1.160635 -36.881403 60.018559 4.777786 -7.313940 -32.032908 -11.244791 29.593055 -2.573771 0.421249 0.528599 0.000000 0.000000 0.000000 0.823895 -54.701578 0.844368 9.229863 4.995051 -1.348430 1.780458 0.145910 -1.901783 0.992296 -1.761428 -0.023335 0.000000 0.000000 0.000000 2.589378 -0.145270 -1.775960 -6.678886 15.478390 2.415518 3.771025 30.611030 -6.981671 0.000000 0.000000 0.000000 3.352345 -0.311413 -1.673051 1.582082 3.650188 4.766708 -3.996852 4.770880 -2.056183 -33.317594 -13.781840 -14.149749 3.622492 -58.406218 3.351040 0.000000 0.000000 0.000000 1.961099 -0.291298 -2.101828 1.445083 10.115336 0.799346 -6.664871 -1.941548 1.755646 -48.124003 32.278593 74.999684 -179.045104 59.522326 176.058986 0.000000 0.000000 0.000000 
1.071569 27.645281 0.002123 0.000000 0.000000 0.000000 -1.716978 -53.735673 -1.939593 -33.993295 0.068933 27.371811 68.523101 -11.221209 2.150404 -32.797185 3.481969 -16.218872 -2.769668 -0.193503 0.067032 0.000000 0.000000 0.000000 -2.532295 -52.924318 -1.423051 -18.893082 -5.186328 -35.561544 58.143754 3.367784 -7.103702 -33.918931 -12.628881 29.064463 -2.822668 0.481409 0.566724 0.000000 0.000000 0.000000 0.429458 -52.092111 -0.077130 9.110305 3.622591 -1.504263 1.951298 -0.169715 -2.045006 0.844503 -1.141990 -0.322189 0.000000 0.000000 0.000000 2.342230 -0.525158 -2.023705 -7.109507 15.015686 2.606927 4.495387 28.959019 -6.710400 0.000000 0.000000 0.000000 3.945694 -0.746628 -1.788712 1.351421 4.337895 4.427078 -4.546840 4.652588 -2.885334 -35.782395 -18.482306 -19.343804 4.138047 -56.197803 3.512086 0.000000 0.000000 0.000000 2.461340 -0.699771 -2.319375 1.868133 12.195076 -0.072670 -7.335825 -1.642417 2.886662 -38.392982 33.387532 69.835180 -178.714017 54.294407 175.741587 0.000000 0.000000 0.000000 
0.958103 27.540789 0.053234 0.000000 0.000000 0.000000 -1.311114 -49.328842 -1.917458 -38.696280 -1.043571 26.183614 69.614367 -10.252648 3.451829 -29.049546 1.287138 -16.754152 -3.194466 -0.071175 0.202787 0.000000 0.000000 0.000000 -2.242275 -48.212058 -1.621297 -14.711430 -10.198879 -34.366968 57.154979 1.808218 -6.877546 -36.679140 -14.741047 28.739380 -2.798489 0.531577 0.440939 0.000000 0.000000 0.000000 0.204068 -48.144545 -0.404175 9.217291 3.310680 -1.882957 2.170890 0.262709 -2.169780 0.882657 -0.925814 -0.273534 0.000000 0.000000 0.000000 2.232006 -0.099842 -2.196696 -7.804344 13.819784 2.632335 4.861264 25.106413 -5.155405 0.000000 0.000000 0.000000 4.119527 -0.298045 -1.811936 0.904461 5.047541 3.308343 -4.031601 3.098709 -3.776642 -34.161246 -20.184787 -27.304762 5.393807 -66.075004 4.614959 0.000000 0.000000 0.000000 2.877607 -0.296613 -2.418848 2.489047 15.028839 -1.747399 -7.553246 -1.340401 4.142039 -29.974886 32.195278 61.846919 -177.973256 51.166187 175.491752 0.000000 0.000000 0.000000 
0.831569 27.384464 0.183279 0.000000 0.000000 0.000000 -0.663926 -44.624402 -1.236134 -43.900901 -1.338781 24.665676 70.575047 -8.931166 4.371161 -25.299555 -1.520217 -15.722001 -3.527739 -0.050450 0.484487 0.000000 0.000000 0.000000 -1.707678 -42.992025 -1.143217 -10.534803 -15.319952 -33.309504 56.853142 0.431872 -6.608081 -39.633795 -17.190369 28.767746 -2.543197 0.580174 0.159019 0.000000 0.000000 0.000000 0.083884 -43.397683 -0.234095 9.602505 4.323853 -2.474944 2.374807 1.423431 -2.214124 0.921822 -0.822350 0.329697 0.000000 0.000000 0.000000 2.290852 1.089410 -2.241922 -8.747123 12.086655 2.431593 4.974122 19.347580 -2.720188 0.000000 0.000000 0.000000 3.842732 0.994992 -1.773939 0.411313 5.456601 1.724534 -2.264991 0.918139 -4.221863 -29.018281 -20.398119 -36.445090 11.564200 -82.065262 10.966463 0.000000 0.000000 0.000000 3.087774 0.900465 -2.386502 3.225093 18.194456 -4.035782 -7.443626 -1.161067 4.808105 -26.076778 28.886257 52.827589 -176.828434 52.894136 175.157278 0.000000 0.000000 0.000000 
0.710366 27.179602 0.297658 0.000000 0.000000 0.000000 -0.041892 -40.228206 -0.239343 -48.770617 -1.034084 23.079930 71.430316 -7.568259 5.112299 -22.206466 -4.423482 -13.714884 -3.586617 -0.083041 0.855459 0.000000 0.000000 0.000000 -1.187323 -38.095964 -0.333924 -6.913725 -19.849448 -32.485169 56.809876 -0.519878 -6.282705 -41.975208 -19.517001 29.231557 -2.451373 0.621684 -0.202246 0.000000 0.000000 0.000000 0.080037 -38.757984 0.193719 10.201846 6.544649 -3.241919 2.534096 3.098187 -2.198073 0.922265 -0.983597 0.893151 0.000000 0.000000 0.000000 2.513467 2.806756 -2.183830 -9.832068 10.067799 2.030239 5.121679 12.584812 -0.055875 0.000000 0.000000 0.000000 3.227996 2.867274 -1.714226 0.033093 4.948683 -0.233394 0.256686 -1.325886 -3.292496 -20.262028 -20.781682 -44.669065 172.309417 -83.746459 172.317845 0.000000 0.000000 0.000000 3.112913 2.692153 -2.254943 3.977891 21.262582 -6.410320 -7.286534 -0.627619 4.286871 -27.964166 24.869499 44.276650 -174.638867 62.132462 173.969959 0.000000 0.000000 0.000000 
